<svg width="501" height="540" viewBox="0 0 501 540" fill="none" xmlns="http://www.w3.org/2000/svg">
<g filter="url(#filter0_ddddd_529_14738)">
<path d="M325 223.5C325 202.935 317.725 185.377 303.174 170.826C288.623 156.275 271.065 149 250.5 149C229.935 149 212.377 156.275 197.826 170.826C183.275 185.377 176 202.935 176 223.5C176 244.065 183.275 261.623 197.826 276.174C212.377 290.725 229.935 298 250.5 298C271.065 298 288.623 290.725 303.174 276.174C317.725 261.623 325 244.065 325 223.5ZM474 191.779V256.385C474 258.713 473.224 260.944 471.672 263.078C470.12 265.212 468.18 266.473 465.852 266.861L412.014 275.01C408.327 285.486 404.544 294.314 400.664 301.492C407.454 311.193 417.834 324.579 431.803 341.652C433.743 343.98 434.713 346.406 434.713 348.928C434.713 351.45 433.84 353.681 432.094 355.621C426.855 362.799 417.252 373.276 403.283 387.051C389.314 400.826 380.196 407.713 375.928 407.713C373.6 407.713 371.077 406.84 368.361 405.094L328.201 373.664C319.665 378.126 310.837 381.812 301.719 384.723C298.615 411.108 295.801 429.151 293.279 438.852C291.921 444.284 288.429 447 282.803 447H218.197C215.481 447 213.104 446.175 211.067 444.526C209.03 442.877 207.915 440.792 207.721 438.27L199.572 384.723C190.066 381.618 181.335 378.029 173.381 373.955L132.348 405.094C130.408 406.84 127.982 407.713 125.072 407.713C122.356 407.713 119.931 406.646 117.797 404.512C93.3516 382.395 77.3457 366.098 69.7793 355.621C68.4212 353.681 67.7422 351.45 67.7422 348.928C67.7422 346.6 68.5182 344.368 70.0703 342.234C72.9805 338.16 77.9277 331.709 84.9121 322.882C91.8965 314.054 97.1348 307.216 100.627 302.365C95.3887 292.665 91.4115 283.061 88.6953 273.555L35.4395 265.697C32.9173 265.309 30.8802 264.097 29.3281 262.06C27.776 260.022 27 257.743 27 255.221V190.615C27 188.287 27.776 186.056 29.3281 183.922C30.8802 181.788 32.7233 180.527 34.8574 180.139L88.9863 171.99C91.7025 163.066 95.4857 154.141 100.336 145.217C92.5755 134.158 82.196 120.771 69.1973 105.057C67.2572 102.729 66.2871 100.4 66.2871 98.0723C66.2871 96.1322 67.1602 93.901 68.9062 91.3789C73.9505 84.3945 83.5055 73.9665 97.5713 60.0947C111.637 46.223 120.804 39.2871 125.072 39.2871C127.594 39.2871 130.117 40.2572 132.639 42.1973L172.799 73.3359C181.335 68.8737 190.163 65.1875 199.281 62.2773C202.385 35.8919 205.199 17.849 207.721 8.14844C209.079 2.71615 212.571 0 218.197 0H282.803C285.519 0 287.896 0.824544 289.933 2.47363C291.97 4.12272 293.085 6.20833 293.279 8.73047L301.428 62.2773C310.934 65.3815 319.665 68.9707 327.619 73.0449L368.943 41.9062C370.689 40.1602 373.018 39.2871 375.928 39.2871C378.45 39.2871 380.875 40.2572 383.203 42.1973C408.23 65.2845 424.236 81.7754 431.221 91.6699C432.579 93.222 433.258 95.3561 433.258 98.0723C433.258 100.4 432.482 102.632 430.93 104.766C428.02 108.84 423.072 115.291 416.088 124.118C409.104 132.946 403.865 139.785 400.373 144.635C405.417 154.335 409.395 163.842 412.305 173.154L465.561 181.303C468.083 181.691 470.12 182.903 471.672 184.94C473.224 186.978 474 189.257 474 191.779Z" fill="#4A36EC"/>
<ellipse cx="250.187" cy="222.961" rx="181.123" ry="187.369" fill="#4A36EC"/>
<path fill-rule="evenodd" clip-rule="evenodd" d="M149 227.383V120.689C149 114.061 154.373 108.689 161 108.689H340C346.627 108.689 352 114.061 352 120.689V227.383L342.942 162.489L335.558 156.724C329.176 151.741 321.88 148.057 314.081 145.879L311.174 145.067C306.445 143.746 301.558 143.076 296.648 143.076H205.418C200.508 143.076 195.621 143.746 190.892 145.067L187.984 145.879C180.186 148.057 172.889 151.741 166.507 156.724L159.123 162.489L149 227.383ZM174.514 315.017H153.991V234.038L164.928 178.542C167.324 166.384 177.419 157.242 189.755 156.059C229.791 152.22 270.101 152.181 310.145 155.944L311.224 156.045C323.876 157.234 334.218 166.647 336.587 179.133L347.007 234.038V315.017H326.486V325C326.486 332.352 320.527 338.311 313.175 338.311C305.823 338.311 299.863 332.352 299.863 325V315.017H201.137V325C201.137 332.352 195.177 338.311 187.825 338.311C180.473 338.311 174.514 332.352 174.514 325V315.017ZM181.743 176.4C182.051 174.458 183.726 173.028 185.693 173.028H315.305C317.272 173.028 318.948 174.458 319.256 176.4L329.079 238.286C329.465 240.715 327.588 242.913 325.128 242.913H175.87C173.411 242.913 171.534 240.715 171.919 238.286L181.743 176.4ZM176.185 267.317C173.424 267.317 171.185 269.556 171.185 272.317V282.284C171.185 285.046 173.424 287.284 176.185 287.284H199.464C202.226 287.284 204.464 285.046 204.464 282.284V272.317C204.464 269.556 202.226 267.317 199.464 267.317H176.185ZM296.535 272.317C296.535 269.556 298.774 267.317 301.535 267.317H324.814C327.575 267.317 329.814 269.556 329.814 272.317V282.284C329.814 285.046 327.575 287.284 324.814 287.284H301.535C298.774 287.284 296.535 285.046 296.535 282.284V272.317Z" fill="white"/>
</g>
<defs>
<filter id="filter0_ddddd_529_14738" x="0.516144" y="0" width="499.968" height="539.693" filterUnits="userSpaceOnUse" color-interpolation-filters="sRGB">
<feFlood flood-opacity="0" result="BackgroundImageFix"/>
<feColorMatrix in="SourceAlpha" type="matrix" values="0 0 0 0 0 0 0 0 0 0 0 0 0 0 0 0 0 0 127 0" result="hardAlpha"/>
<feOffset/>
<feColorMatrix type="matrix" values="0 0 0 0 0 0 0 0 0 0 0 0 0 0 0 0 0 0 0.1 0"/>
<feBlend mode="normal" in2="BackgroundImageFix" result="effect1_dropShadow_529_14738"/>
<feColorMatrix in="SourceAlpha" type="matrix" values="0 0 0 0 0 0 0 0 0 0 0 0 0 0 0 0 0 0 127 0" result="hardAlpha"/>
<feOffset dy="6.62096"/>
<feGaussianBlur stdDeviation="3.31048"/>
<feColorMatrix type="matrix" values="0 0 0 0 0 0 0 0 0 0 0 0 0 0 0 0 0 0 0.1 0"/>
<feBlend mode="normal" in2="effect1_dropShadow_529_14738" result="effect2_dropShadow_529_14738"/>
<feColorMatrix in="SourceAlpha" type="matrix" values="0 0 0 0 0 0 0 0 0 0 0 0 0 0 0 0 0 0 127 0" result="hardAlpha"/>
<feOffset dy="13.2419"/>
<feGaussianBlur stdDeviation="6.62096"/>
<feColorMatrix type="matrix" values="0 0 0 0 0 0 0 0 0 0 0 0 0 0 0 0 0 0 0.09 0"/>
<feBlend mode="normal" in2="effect2_dropShadow_529_14738" result="effect3_dropShadow_529_14738"/>
<feColorMatrix in="SourceAlpha" type="matrix" values="0 0 0 0 0 0 0 0 0 0 0 0 0 0 0 0 0 0 127 0" result="hardAlpha"/>
<feOffset dy="39.7258"/>
<feGaussianBlur stdDeviation="9.93145"/>
<feColorMatrix type="matrix" values="0 0 0 0 0 0 0 0 0 0 0 0 0 0 0 0 0 0 0.05 0"/>
<feBlend mode="normal" in2="effect3_dropShadow_529_14738" result="effect4_dropShadow_529_14738"/>
<feColorMatrix in="SourceAlpha" type="matrix" values="0 0 0 0 0 0 0 0 0 0 0 0 0 0 0 0 0 0 127 0" result="hardAlpha"/>
<feOffset dy="66.2096"/>
<feGaussianBlur stdDeviation="13.2419"/>
<feColorMatrix type="matrix" values="0 0 0 0 0 0 0 0 0 0 0 0 0 0 0 0 0 0 0.01 0"/>
<feBlend mode="normal" in2="effect4_dropShadow_529_14738" result="effect5_dropShadow_529_14738"/>
<feBlend mode="normal" in="SourceGraphic" in2="effect5_dropShadow_529_14738" result="shape"/>
</filter>
</defs>
</svg>
